<?xml version="1.0" encoding="UTF-8" standalone="no"?><!DOCTYPE svg PUBLIC "-//W3C//DTD SVG 1.1//EN" "http://www.w3.org/Graphics/SVG/1.1/DTD/svg11.dtd"><svg width="100%" height="100%" viewBox="0 0 41 58" version="1.1" xmlns="http://www.w3.org/2000/svg" xmlns:xlink="http://www.w3.org/1999/xlink" xml:space="preserve" xmlns:serif="http://www.serif.com/" style="fill-rule:evenodd;clip-rule:evenodd;stroke-linejoin:round;stroke-miterlimit:1.41421;"><rect id="Монтажная-область1" serif:id="Монтажная область1" x="0" y="0" width="40.376" height="57.5" style="fill:none;"/><path d="M8.741,43.351c1.877,2.906 3.26,4.885 4.952,7.146c1.253,1.674 2.547,3.317 3.882,4.926c0.345,0.416 0.692,0.83 1.042,1.24c0.351,0.411 0.865,0.647 1.405,0.646c0.54,-0.001 1.053,-0.239 1.402,-0.651c0.611,-0.714 1.289,-1.514 1.738,-2.066c1.253,-1.543 2.471,-3.115 3.651,-4.715c2.766,-3.751 5.343,-7.656 7.564,-11.755c1.413,-2.609 2.685,-5.303 3.692,-8.095c0.782,-2.166 1.407,-4.399 1.741,-6.68c0.173,-1.183 0.267,-2.379 0.252,-3.575c-0.022,-1.682 -0.253,-3.361 -0.693,-4.984c-0.51,-1.885 -1.3,-3.691 -2.334,-5.347c-1.19,-1.906 -2.701,-3.608 -4.451,-5.017c-1.635,-1.317 -3.476,-2.376 -5.438,-3.123c-1.47,-0.559 -3.005,-0.942 -4.565,-1.141c-0.76,-0.097 -1.524,-0.145 -2.291,-0.159c-0.258,-0.002 -0.517,0 -0.775,0.005c-0.764,0.024 -1.526,0.081 -2.283,0.187c-1.474,0.207 -2.924,0.579 -4.314,1.108c-1.963,0.747 -3.804,1.806 -5.439,3.123c-1.75,1.409 -3.261,3.111 -4.451,5.017c-1.034,1.656 -1.823,3.462 -2.334,5.347c-0.417,1.54 -0.647,3.13 -0.688,4.726c-0.032,1.287 0.061,2.575 0.247,3.848c0.334,2.287 0.959,4.526 1.741,6.698c0.855,2.375 4.618,9.994 6.747,13.291Z" style="fill:url(#_Linear1);"/><defs><linearGradient id="_Linear1" x1="0" y1="0" x2="1" y2="0" gradientUnits="userSpaceOnUse" gradientTransform="matrix(-19.3333,-22.1573,22.1573,-19.3333,27.922,29.6879)"><stop offset="0" style="stop-color:#138aff;stop-opacity:1"/><stop offset="1" style="stop-color:#369cff;stop-opacity:1"/></linearGradient></defs></svg>