<?xml version="1.0" encoding="UTF-8" standalone="no"?><!DOCTYPE svg PUBLIC "-//W3C//DTD SVG 1.1//EN" "http://www.w3.org/Graphics/SVG/1.1/DTD/svg11.dtd"><svg width="100%" height="100%" viewBox="0 0 130 289" version="1.1" xmlns="http://www.w3.org/2000/svg" xmlns:xlink="http://www.w3.org/1999/xlink" xml:space="preserve" xmlns:serif="http://www.serif.com/" style="fill-rule:evenodd;clip-rule:evenodd;stroke-linejoin:round;stroke-miterlimit:1.41421;"><g><rect x="18.381" y="168" width="90" height="14" style="fill:#016ac2;"/><path d="M116.763,10c0,-5.519 -4.481,-10 -10,-10l-86.763,0c-5.519,0 -10,4.481 -10,10l0,153.093c0,5.519 4.481,10 10,10l86.763,0c5.519,0 10,-4.481 10,-10l0,-153.093Z" style="fill:#138aff;"/><path d="M116.763,189.872c0,-5.519 -4.481,-10 -10,-10l-86.763,0c-5.519,0 -10,4.481 -10,10l0,83.128c0,5.519 4.481,10 10,10l86.763,0c5.519,0 10,-4.481 10,-10l0,-83.128Z" style="fill:#138aff;"/><rect x="18.658" y="16.314" width="89.446" height="138.231" style="fill:#fff;"/><g><g><path d="M63.383,91.826c10.28,0 18.618,-10.125 18.618,-22.616c0,-12.492 -2.736,-22.616 -18.618,-22.616c-15.883,0 -18.622,10.124 -18.622,22.616c0,12.491 8.338,22.616 18.622,22.616Z" style="fill:url(#_Linear1);fill-rule:nonzero;"/><path d="M98.509,125.444c-0.346,-21.76 -3.186,-27.957 -24.931,-31.884c0,0 -3.063,3.901 -10.195,3.901c-7.136,0 -10.199,-3.901 -10.199,-3.901c-21.506,3.882 -24.521,9.99 -24.92,31.177c-0.029,1.731 -0.044,1.82 -0.052,1.619c0,0.376 0.004,1.072 0.004,2.289c0,0 5.177,10.433 35.167,10.433c29.986,0 35.163,-10.433 35.163,-10.433c0,-0.782 0,-1.325 0.004,-1.694c-0.008,0.127 -0.019,-0.115 -0.041,-1.507Z" style="fill:url(#_Linear2);fill-rule:nonzero;"/></g><path d="M28.212,126.356c-0.003,-0.759 -0.007,-0.212 0,0Z" style="fill:#ffa00b;fill-rule:nonzero;"/><path d="M98.55,126.951c0.007,-0.208 0.003,-1.444 0,0Z" style="fill:#ffa00b;fill-rule:nonzero;"/></g></g><defs><linearGradient id="_Linear1" x1="0" y1="0" x2="1" y2="0" gradientUnits="userSpaceOnUse" gradientTransform="matrix(-70.3375,-92.4843,92.4843,-70.3375,98.5497,139.078)"><stop offset="0" style="stop-color:#ff5c59;stop-opacity:1"/><stop offset="1" style="stop-color:#ffa505;stop-opacity:1"/></linearGradient><linearGradient id="_Linear2" x1="0" y1="0" x2="1" y2="0" gradientUnits="userSpaceOnUse" gradientTransform="matrix(-70.3375,-92.4843,92.4843,-70.3375,98.5497,139.078)"><stop offset="0" style="stop-color:#ff5c59;stop-opacity:1"/><stop offset="1" style="stop-color:#ffa505;stop-opacity:1"/></linearGradient></defs></svg>