<?xml version="1.0" encoding="UTF-8" standalone="no"?><!DOCTYPE svg PUBLIC "-//W3C//DTD SVG 1.1//EN" "http://www.w3.org/Graphics/SVG/1.1/DTD/svg11.dtd"><svg width="100%" height="100%" viewBox="0 0 40 30" version="1.1" xmlns="http://www.w3.org/2000/svg" xmlns:xlink="http://www.w3.org/1999/xlink" xml:space="preserve" xmlns:serif="http://www.serif.com/" style="fill-rule:evenodd;clip-rule:evenodd;stroke-linejoin:round;stroke-miterlimit:1.41421;"><rect id="Монтажная-область1" serif:id="Монтажная область1" x="0" y="0" width="40" height="29.39" style="fill:none;"/><path d="M34.917,29.229l-21.649,0c-0.465,0 -0.906,-0.196 -1.212,-0.538l-11.658,-13.039c-0.531,-0.594 -0.531,-1.481 0,-2.075l11.658,-13.039c0.306,-0.342 0.747,-0.538 1.212,-0.538l21.649,0c2.725,0 4.941,2.169 4.941,4.835l0,19.559c0,2.666 -2.216,4.835 -4.941,4.835Zm-20.919,-3.151l20.919,0c0.949,0 1.721,-0.756 1.721,-1.684l0,-19.558c0,-0.929 -0.772,-1.684 -1.721,-1.684l-20.919,0l-10.249,11.463l10.249,11.463Zm10.927,-13.692l3.858,-3.775c0.629,-0.616 1.648,-0.616 2.277,0c0.628,0.615 0.628,1.613 0,2.228l-3.858,3.776l3.858,3.775c0.629,0.615 0.629,1.613 0,2.229c-0.315,0.307 -0.727,0.461 -1.139,0.461c-0.412,0 -0.824,-0.154 -1.138,-0.461l-3.858,-3.776l-3.857,3.776c-0.315,0.307 -0.727,0.461 -1.139,0.461c-0.412,0 -0.824,-0.154 -1.138,-0.461c-0.629,-0.616 -0.629,-1.614 0,-2.229l3.857,-3.775l-3.857,-3.776c-0.629,-0.615 -0.629,-1.613 0,-2.228c0.628,-0.616 1.648,-0.616 2.277,0l3.857,3.775Z" style="fill:#102031;"/></svg>