<?xml version="1.0" encoding="UTF-8" standalone="no"?>
<!DOCTYPE svg PUBLIC "-//W3C//DTD SVG 1.1//EN" "http://www.w3.org/Graphics/SVG/1.1/DTD/svg11.dtd">
<svg width="100%" height="100%" viewBox="0 0 41 60" version="1.1" xmlns="http://www.w3.org/2000/svg" xmlns:xlink="http://www.w3.org/1999/xlink" xml:space="preserve" xmlns:serif="http://www.serif.com/" style="fill-rule:evenodd;clip-rule:evenodd;stroke-linejoin:round;stroke-miterlimit:1.41421;">
    <g id="Монтажная-область1" serif:id="Монтажная область1" transform="matrix(0.0317969,0,0,0.073875,0,0)">
        <rect x="0" y="0" width="1280" height="800" style="fill:none;"/>
        <clipPath id="_clip1">
            <rect x="0" y="0" width="1280" height="800"/>
        </clipPath>
        <g clip-path="url(#_clip1)">
            <g transform="matrix(31.4496,0,0,13.5364,-482508,-6785.95)">
                <g transform="matrix(1.11022e-16,-1,1,1.11022e-15,14900.3,712.671)">
                    <path d="M196.264,448.16L186.996,457.428C186.377,458.048 185.372,458.048 184.752,457.428C184.133,456.809 184.133,455.804 184.752,455.184C184.752,455.184 193.754,446.183 196.409,443.528C196.784,443.153 197.293,442.942 197.823,442.942C198.354,442.942 198.862,443.153 199.238,443.528C201.893,446.183 210.894,455.184 210.894,455.184C211.514,455.804 211.514,456.809 210.894,457.428C210.275,458.048 209.27,458.048 208.651,457.428L199.437,448.215L199.437,481.073C199.437,481.949 198.727,482.659 197.851,482.659C196.975,482.659 196.264,481.949 196.264,481.073L196.264,448.16Z" style="fill:rgb(58,138,253);"/>
                </g>
                <g transform="matrix(1.11022e-16,1,-1,-1.11022e-15,15824.9,349.025)">
                    <path d="M196.264,448.16L186.996,457.428C186.377,458.048 185.372,458.048 184.752,457.428C184.133,456.809 184.133,455.804 184.752,455.184C184.752,455.184 193.754,446.183 196.409,443.528C196.784,443.153 197.293,442.942 197.823,442.942C198.354,442.942 198.862,443.153 199.238,443.528C201.893,446.183 210.894,455.184 210.894,455.184C211.514,455.804 211.514,456.809 210.894,457.428C210.275,458.048 209.27,458.048 208.651,457.428L199.437,448.215L199.437,481.073C199.437,481.949 198.727,482.659 197.851,482.659C196.975,482.659 196.264,481.949 196.264,481.073L196.264,448.16Z" style="fill:rgb(58,138,253);"/>
                </g>
            </g>
        </g>
    </g>
</svg>
