<?xml version="1.0" encoding="UTF-8" standalone="no"?>
<!DOCTYPE svg PUBLIC "-//W3C//DTD SVG 1.1//EN" "http://www.w3.org/Graphics/SVG/1.1/DTD/svg11.dtd">
<svg width="100%" height="100%" viewBox="0 0 43 43" version="1.1" xmlns="http://www.w3.org/2000/svg" xmlns:xlink="http://www.w3.org/1999/xlink" xml:space="preserve" xmlns:serif="http://www.serif.com/" style="fill-rule:evenodd;clip-rule:evenodd;stroke-linejoin:round;stroke-miterlimit:1.41421;">
    <g id="Монтажная-область1" serif:id="Монтажная область1" transform="matrix(0.0332653,0,0,0.0537362,0,0)">
        <rect x="0" y="0" width="1280" height="800" style="fill:none;"/>
        <g transform="matrix(30.0614,0,0,18.6094,-739959,-51664.7)">
            <path d="M24636.5,2777.42L24639.1,2776.43C24639.4,2776.32 24639.7,2776.37 24640,2776.56L24642.2,2778.32C24642.3,2778.45 24642.5,2778.52 24642.7,2778.51L24645.5,2778.38C24645.8,2778.36 24646.1,2778.51 24646.3,2778.78L24647.8,2781.12C24647.9,2781.3 24648.1,2781.43 24648.3,2781.49L24651,2782.23C24651.3,2782.31 24651.5,2782.54 24651.6,2782.85L24652.3,2785.55C24652.4,2785.76 24652.5,2785.94 24652.7,2786.05L24655,2787.6C24655.3,2787.77 24655.4,2788.06 24655.4,2788.38L24655.3,2791.18C24655.3,2791.39 24655.3,2791.6 24655.5,2791.77L24657.2,2793.96C24657.4,2794.2 24657.5,2794.53 24657.4,2794.82L24656.4,2797.45C24656.3,2797.65 24656.3,2797.87 24656.4,2798.07L24657.4,2800.69C24657.5,2800.99 24657.4,2801.32 24657.2,2801.56L24655.5,2803.75C24655.3,2803.92 24655.3,2804.13 24655.3,2804.34L24655.4,2807.14C24655.4,2807.45 24655.3,2807.75 24655,2807.92L24652.7,2809.46C24652.5,2809.58 24652.4,2809.76 24652.3,2809.97L24651.6,2812.67C24651.5,2812.97 24651.3,2813.21 24651,2813.29L24648.3,2814.03C24648.1,2814.09 24647.9,2814.22 24647.8,2814.4L24646.3,2816.74C24646.1,2817 24645.8,2817.16 24645.5,2817.14L24642.7,2817.01C24642.5,2817 24642.3,2817.07 24642.2,2817.2L24640,2818.95C24639.7,2819.15 24639.4,2819.2 24639.1,2819.09L24636.5,2818.1C24636.3,2818.03 24636.1,2818.03 24635.9,2818.1L24633.3,2819.09C24633,2819.2 24632.7,2819.15 24632.5,2818.95L24630.3,2817.2C24630.1,2817.07 24629.9,2817 24629.7,2817.01L24626.9,2817.14C24626.6,2817.16 24626.3,2817 24626.2,2816.74L24624.6,2814.4C24624.5,2814.22 24624.3,2814.09 24624.1,2814.03L24621.5,2813.29C24621.2,2813.21 24620.9,2812.97 24620.8,2812.67L24620.1,2809.97C24620.1,2809.76 24619.9,2809.58 24619.7,2809.46L24617.4,2807.92C24617.2,2807.75 24617,2807.45 24617,2807.14L24617.2,2804.34C24617.2,2804.13 24617.1,2803.92 24617,2803.75L24615.2,2801.56C24615,2801.32 24615,2800.99 24615.1,2800.69L24616.1,2798.07C24616.2,2797.87 24616.2,2797.65 24616.1,2797.45L24615.1,2794.82C24615,2794.53 24615,2794.2 24615.2,2793.96L24617,2791.77C24617.1,2791.6 24617.2,2791.39 24617.2,2791.18L24617,2788.38C24617,2788.06 24617.2,2787.77 24617.4,2787.6L24619.7,2786.05C24619.9,2785.94 24620.1,2785.76 24620.1,2785.55L24620.8,2782.85C24620.9,2782.54 24621.2,2782.31 24621.5,2782.23L24624.1,2781.49C24624.3,2781.43 24624.5,2781.3 24624.6,2781.12L24626.2,2778.78C24626.3,2778.51 24626.6,2778.36 24626.9,2778.38L24629.7,2778.51C24629.9,2778.52 24630.1,2778.45 24630.3,2778.32L24632.5,2776.56C24632.7,2776.37 24633,2776.32 24633.3,2776.43L24635.9,2777.42C24636.1,2777.49 24636.3,2777.49 24636.5,2777.42ZM24629.8,2809.07C24630.3,2809.07 24630.7,2808.66 24630.7,2808.16L24630.7,2793.48C24630.7,2792.97 24630.3,2792.56 24629.8,2792.56L24624.3,2792.56C24623.8,2792.56 24623.4,2792.97 24623.4,2793.48L24623.4,2808.16C24623.4,2808.66 24623.8,2809.07 24624.3,2809.07L24629.8,2809.07ZM24649.8,2794.62C24649.6,2793.43 24648.6,2792.56 24647.4,2792.56L24639.6,2792.56C24641.8,2790.84 24643.2,2788.52 24643.4,2786.61C24643.5,2785.2 24642.6,2783.85 24641.2,2783.84C24639.9,2783.83 24638.9,2784.85 24638.9,2786.12C24638.9,2786.95 24637.1,2789.4 24633.8,2790.49C24633.8,2790.49 24633.8,2790.49 24633.8,2790.49C24633,2790.75 24632.5,2791.55 24632.5,2792.37L24632.5,2807.24C24632.5,2807.74 24632.9,2808.16 24633.4,2808.16L24645.1,2808.16C24646,2808.16 24646.9,2807.53 24647,2806.63C24647.2,2805.48 24646.3,2804.49 24645.2,2804.49L24646,2804.49C24646.9,2804.49 24647.8,2803.86 24647.9,2802.96C24648.1,2801.81 24647.2,2800.82 24646.1,2800.82L24646.9,2800.82C24647.9,2800.82 24648.7,2800.19 24648.8,2799.29C24649,2798.14 24648.1,2797.15 24647,2797.15L24647.5,2797.15C24648.8,2797.15 24649.9,2795.99 24649.8,2794.62ZM24627.1,2804.03C24627.8,2804.03 24628.4,2804.64 24628.4,2805.4C24628.4,2806.16 24627.8,2806.78 24627.1,2806.78C24626.3,2806.78 24625.7,2806.16 24625.7,2805.4C24625.7,2804.64 24626.3,2804.03 24627.1,2804.03Z" style="fill:rgb(255,206,55);"/>
        </g>
    </g>
</svg>
