<?xml version="1.0" encoding="UTF-8" standalone="no"?>
<!DOCTYPE svg PUBLIC "-//W3C//DTD SVG 1.1//EN" "http://www.w3.org/Graphics/SVG/1.1/DTD/svg11.dtd">
<svg width="100%" height="100%" viewBox="0 0 43 43" version="1.1" xmlns="http://www.w3.org/2000/svg" xmlns:xlink="http://www.w3.org/1999/xlink" xml:space="preserve" xmlns:serif="http://www.serif.com/" style="fill-rule:evenodd;clip-rule:evenodd;stroke-linejoin:round;stroke-miterlimit:1.41421;">
    <g id="Монтажная-область1" serif:id="Монтажная область1" transform="matrix(0.0332653,0,0,0.0537362,0,0)">
        <rect x="0" y="0" width="1280" height="800" style="fill:none;"/>
        <g transform="matrix(30.0614,0,0,18.6094,-733526,-58238.5)">
            <path d="M24422.6,3130.77L24425.2,3129.78C24425.5,3129.67 24425.8,3129.72 24426,3129.92L24428.2,3131.67C24428.4,3131.81 24428.6,3131.88 24428.8,3131.87L24431.6,3131.73C24431.9,3131.72 24432.2,3131.87 24432.3,3132.13L24433.9,3134.47C24434,3134.66 24434.2,3134.79 24434.4,3134.84L24437,3135.58C24437.3,3135.66 24437.6,3135.9 24437.6,3136.2L24438.4,3138.91C24438.4,3139.11 24438.6,3139.29 24438.7,3139.41L24441.1,3140.95C24441.3,3141.12 24441.5,3141.42 24441.5,3141.73L24441.3,3144.53C24441.3,3144.75 24441.4,3144.96 24441.5,3145.13L24443.3,3147.32C24443.4,3147.56 24443.5,3147.89 24443.4,3148.18L24442.4,3150.8C24442.3,3151 24442.3,3151.23 24442.4,3151.43L24443.4,3154.05C24443.5,3154.34 24443.4,3154.67 24443.3,3154.92L24441.5,3157.1C24441.4,3157.27 24441.3,3157.48 24441.3,3157.7L24441.5,3160.5C24441.5,3160.81 24441.3,3161.11 24441.1,3161.28L24438.7,3162.82C24438.6,3162.94 24438.4,3163.12 24438.4,3163.33L24437.6,3166.03C24437.6,3166.33 24437.3,3166.57 24437,3166.65L24434.4,3167.39C24434.2,3167.45 24434,3167.58 24433.9,3167.76L24432.3,3170.1C24432.2,3170.36 24431.9,3170.51 24431.6,3170.5L24428.8,3170.37C24428.6,3170.36 24428.4,3170.42 24428.2,3170.56L24426,3172.31C24425.8,3172.51 24425.5,3172.56 24425.2,3172.45L24422.6,3171.46C24422.4,3171.38 24422.2,3171.38 24422,3171.46L24419.4,3172.45C24419.1,3172.56 24418.7,3172.51 24418.5,3172.31L24416.3,3170.56C24416.2,3170.42 24416,3170.36 24415.7,3170.37L24413,3170.5C24412.7,3170.51 24412.4,3170.36 24412.2,3170.1L24410.7,3167.76C24410.6,3167.58 24410.4,3167.45 24410.2,3167.39L24407.5,3166.65C24407.2,3166.57 24407,3166.33 24406.9,3166.03L24406.2,3163.33C24406.1,3163.12 24406,3162.94 24405.8,3162.82L24403.5,3161.28C24403.2,3161.11 24403.1,3160.81 24403.1,3160.5L24403.2,3157.7C24403.2,3157.48 24403.1,3157.27 24403,3157.1L24401.3,3154.92C24401.1,3154.67 24401,3154.34 24401.1,3154.05L24402.1,3151.43C24402.2,3151.23 24402.2,3151 24402.1,3150.8L24401.1,3148.18C24401,3147.89 24401.1,3147.56 24401.3,3147.32L24403,3145.13C24403.1,3144.96 24403.2,3144.75 24403.2,3144.53L24403.1,3141.73C24403.1,3141.42 24403.2,3141.12 24403.5,3140.95L24405.8,3139.41C24406,3139.29 24406.1,3139.11 24406.2,3138.91L24406.9,3136.2C24407,3135.9 24407.2,3135.66 24407.5,3135.58L24410.2,3134.84C24410.4,3134.79 24410.6,3134.66 24410.7,3134.47L24412.2,3132.13C24412.4,3131.87 24412.7,3131.72 24413,3131.73L24415.7,3131.87C24416,3131.88 24416.2,3131.81 24416.3,3131.67L24418.5,3129.92C24418.7,3129.72 24419.1,3129.67 24419.4,3129.78L24422,3130.77C24422.2,3130.85 24422.4,3130.85 24422.6,3130.77ZM24421.4,3160.18C24421.9,3159.87 24422.6,3159.87 24423.2,3160.18C24424.5,3160.92 24427.2,3162.36 24428.9,3163.31C24429.3,3163.49 24429.7,3163.45 24430,3163.23C24430.3,3163 24430.4,3162.62 24430.4,3162.24C24430,3160.23 24429.5,3157.23 24429.3,3155.65C24429.2,3154.99 24429.4,3154.31 24429.8,3153.84C24430.9,3152.73 24433,3150.61 24434.5,3149.19C24434.7,3148.92 24434.8,3148.52 24434.7,3148.15C24434.6,3147.78 24434.3,3147.51 24433.9,3147.45C24432,3147.16 24429,3146.72 24427.5,3146.49C24426.9,3146.4 24426.3,3145.99 24426,3145.39C24425.3,3143.95 24424,3141.2 24423.1,3139.37C24423,3139.03 24422.6,3138.81 24422.3,3138.81C24421.9,3138.81 24421.6,3139.03 24421.4,3139.37C24420.5,3141.2 24419.2,3143.95 24418.5,3145.39C24418.2,3145.99 24417.7,3146.4 24417,3146.49C24415.5,3146.72 24412.6,3147.16 24410.6,3147.45C24410.2,3147.51 24409.9,3147.78 24409.8,3148.15C24409.7,3148.52 24409.8,3148.92 24410.1,3149.19C24411.5,3150.61 24413.6,3152.73 24414.7,3153.84C24415.2,3154.31 24415.4,3154.99 24415.3,3155.65C24415,3157.23 24414.5,3160.23 24414.2,3162.23C24414.1,3162.61 24414.3,3163 24414.6,3163.23C24414.9,3163.45 24415.3,3163.49 24415.6,3163.31C24417.3,3162.36 24420,3160.92 24421.4,3160.18Z" style="fill:rgb(212,212,212);"/>
        </g>
    </g>
</svg>
